Coordinates
version=1
nRows=17
nColumns=40
inDegrees=yes

Units are S.I. units (second, meters, Newtons, ...)
If the header above contains a line with 'inDegrees', this indicates whether rotational values are in degrees (yes) or radians (no).

endheader
time	pelvis_tilt	pelvis_list	pelvis_rotation	pelvis_tx	pelvis_ty	pelvis_tz	hip_flexion_r	hip_adduction_r	hip_rotation_r	knee_angle_r	knee_angle_r_beta	ankle_angle_r	subtalar_angle_r	mtp_angle_r	hip_flexion_l	hip_adduction_l	hip_rotation_l	knee_angle_l	knee_angle_l_beta	ankle_angle_l	subtalar_angle_l	mtp_angle_l	lumbar_extension	lumbar_bending	lumbar_rotation	arm_flex_r	arm_add_r	arm_rot_r	elbow_flex_r	pro_sup_r	wrist_flex_r	wrist_dev_r	arm_flex_l	arm_add_l	arm_rot_l	elbow_flex_l	pro_sup_l	wrist_flex_l	wrist_dev_l
      0.00000000	    -21.77016197	     -2.05746718	      3.23056441	      0.08704245	      1.28071294	     -0.00774117	     90.25504064	      0.86719012	     10.77665441	     98.99478599	      1.72778496	      1.14125789	    -23.50404854	      0.00000000	     46.50679110	    -12.59624657	     -6.41064539	     43.11154253	      0.75243836	    -11.82241548	     -8.99494753	      0.00000000	    -45.17733049	     -5.67462582	      3.23496763	     56.62876116	     22.87685959	    -38.52797194	     53.23155766	      0.93852169	      0.00000000	      0.00000000	     54.32158304	      7.09332223	    -26.15957118	     42.75599900	      3.54307071	      0.00000000	      0.00000000
      0.01700000	    -21.24706012	     -1.75640842	      3.80454858	      0.08698195	      1.28164141	     -0.00849681	     89.06316051	      0.38502142	     10.82490064	     96.60757009	      1.68612018	      1.73634016	    -24.14841037	      0.00000000	     46.47885396	    -12.20555819	     -6.21855780	     46.06339107	      0.80395784	    -10.74508917	     -9.15904025	      0.00000000	    -45.70285215	     -5.59728671	      2.73858564	     56.47824497	     22.85278254	    -38.62956975	     53.34318249	      0.93889521	      0.00000000	      0.00000000	     54.32410266	      7.11350227	    -26.02772977	     42.71038013	      3.50838651	      0.00000000	      0.00000000
      0.03300000	    -20.69648167	     -1.55020529	      4.36332343	      0.08691271	      1.28262984	     -0.00916578	     87.81295391	     -0.06954865	     10.77278023	     94.17403344	      1.64364695	      2.23965037	    -24.81215594	      0.00000000	     46.40448147	    -11.89887946	     -5.91738518	     48.91798606	      0.85377992	     -9.85358869	     -9.25015482	      0.00000000	    -46.24668135	     -5.44683636	      2.32350088	     56.33934835	     22.80331224	    -38.68385556	     53.41884076	      0.93895049	      0.00000000	      0.00000000	     54.34522174	      7.14233564	    -25.91062121	     42.64306369	      3.49519774	      0.00000000	      0.00000000
      0.05000000	    -20.29624967	     -1.07571059	      4.82623002	      0.08686852	      1.28337039	     -0.00966287	     86.60252887	     -0.54433369	     10.98660586	     91.64497372	      1.59950653	      2.52795819	    -25.18871369	      0.00000000	     46.60446664	    -11.51251687	     -5.88217252	     51.93861305	      0.90649981	     -9.48097073	     -9.14059106	      0.00000000	    -46.67451816	     -5.57189089	      1.74573316	     56.17893596	     22.79766717	    -38.72001288	     53.54437178	      0.93496886	      0.00000000	      0.00000000	     54.34189732	      7.13087951	    -25.80087359	     42.58718709	      3.50387649	      0.00000000	      0.00000000
      0.06700000	    -19.73784279	     -1.13392596	      5.47000752	      0.08687549	      1.28456820	     -0.01048143	     84.88950259	     -1.34103722	     10.26477285	     88.80349840	      1.54991343	      3.08631712	    -25.89068557	      0.00000000	     47.07106001	    -11.33443914	     -5.09136602	     55.34518006	      0.96595562	     -8.26509982	     -9.48403538	      0.00000000	    -47.27355824	     -5.05952283	      1.41568364	     56.22677869	     22.80327198	    -38.81515946	     53.56626755	      0.92626741	      0.00000000	      0.00000000	     54.39569551	      7.15827589	    -25.81504832	     42.60804477	      3.83070957	      0.00000000	      0.00000000
      0.08300000	    -19.37902689	     -0.92382900	      6.04031940	      0.08690026	      1.28538909	     -0.01110611	     83.27558314	     -2.15456998	      9.77484607	     85.86167295	      1.49856889	      3.38923738	    -26.44248597	      0.00000000	     47.86422854	    -11.06034583	     -4.61427777	     58.91033564	      1.02817932	     -7.62453748	     -9.64050748	      0.00000000	    -47.69631949	     -4.82173266	      0.89000871	     56.21307771	     22.81655500	    -38.78494123	     53.59548105	      0.90211314	      0.00000000	      0.00000000	     54.40596650	      7.13828512	    -25.84917499	     42.66781043	      4.29570551	      0.00000000	      0.00000000
      0.10000000	    -19.09669379	     -0.69985337	      6.63518352	      0.08683208	      1.28609525	     -0.01173858	     81.57105698	     -3.00596405	      9.27058823	     82.74964091	      1.44425369	      3.34363461	    -26.79286169	      0.00000000	     48.84900921	    -10.73672283	     -4.01906492	     62.55111039	      1.09172283	     -6.94194015	     -9.59729575	      0.00000000	    -48.03733958	     -4.58715042	      0.37225284	     56.20046147	     22.90635840	    -38.98606065	     53.71235218	      0.94387532	      0.00000000	      0.00000000	     54.44419646	      7.09555591	    -25.59087315	     42.65628786	      3.56373569	      0.00000000	      0.00000000
      0.11700000	    -18.82472233	     -0.25152503	      7.21362929	      0.08680897	      1.28678871	     -0.01244566	     79.67495262	     -3.92071390	      8.96326320	     79.43768727	      1.38644919	      3.09900051	    -26.79446938	      0.00000000	     49.82884765	    -10.26067486	     -3.63187534	     66.28426058	      1.15687859	     -6.10866159	     -9.66188007	      0.00000000	    -48.38676825	     -4.54785752	     -0.28935776	     56.13083757	     23.02759003	    -39.19143654	     53.86210446	      0.93748732	      0.00000000	      0.00000000	     54.48811272	      7.10745386	    -25.51636353	     42.58962779	      3.55390952	      0.00000000	      0.00000000
      0.13300000	    -18.56073338	      0.02622779	      7.91659701	      0.08662401	      1.28755550	     -0.01326376	     77.57149980	     -4.94095228	      8.31759426	     75.86671588	      1.32412398	      2.53071632	    -26.78959560	      0.00000000	     51.00802950	     -9.79662174	     -2.92320257	     70.09758921	      1.22343373	     -5.30060792	     -9.54416705	      0.00000000	    -48.71988495	     -4.29154475	     -0.91732723	     56.08477196	     23.12700915	    -39.40209527	     54.00418841	      0.93855387	      0.00000000	      0.00000000	     54.55888043	      7.14907898	    -25.48466386	     42.56541233	      3.54346129	      0.00000000	      0.00000000
      0.15000000	    -18.32445296	      0.10206149	      8.76423295	      0.08637470	      1.28822519	     -0.01419368	     75.34063439	     -5.96998260	      7.42949938	     72.27857020	      1.26149903	      1.74277941	    -27.01852160	      0.00000000	     52.41007408	     -9.34587958	     -1.92898374	     73.83908603	      1.28873517	     -4.71047216	     -9.13836410	      0.00000000	    -48.98631709	     -3.79909239	     -1.49016295	     56.05103160	     23.18606901	    -39.60192509	     54.06915625	      0.94773526	      0.00000000	      0.00000000	     54.58524945	      7.21621069	    -25.48972516	     42.57186095	      3.53556525	      0.00000000	      0.00000000
      0.16700000	    -18.19459901	      0.43592445	      9.45478096	      0.08611814	      1.28877283	     -0.01505810	     73.18210854	     -6.92241132	      6.91214247	     68.72809530	      1.19953155	      0.43161736	    -26.75247450	      0.00000000	     53.82441939	     -8.78457710	     -1.29497942	     77.40171783	      1.35091482	     -4.07964533	     -8.91173746	      0.00000000	    -49.19734797	     -3.63128807	     -2.13496211	     55.94470851	     23.23935269	    -39.79166071	     54.21202303	      0.94316093	      0.00000000	      0.00000000	     54.58195082	      7.23386129	    -25.34741502	     42.55863711	      3.55684116	      0.00000000	      0.00000000
      0.18300000	    -18.07929418	      0.50577441	     10.30028755	      0.08579680	      1.28922916	     -0.01612577	     70.86584872	     -7.89057110	      6.00106234	     65.10752773	      1.13634073	     -0.99407849	    -26.77643129	      0.00000000	     55.46784428	     -8.24403379	     -0.30278117	     80.90981217	      1.41214262	     -3.58946431	     -8.41673112	      0.00000000	    -49.33552821	     -3.14579800	     -2.69603301	     55.84701875	     23.27467810	    -39.99185597	     54.25569668	      0.94615403	      0.00000000	      0.00000000	     54.53654054	      7.24791807	    -25.23829646	     42.54913807	      3.55220608	      0.00000000	      0.00000000
      0.20000000	    -18.01927913	      0.60000934	     11.11554866	      0.08534282	      1.28960331	     -0.01705629	     68.56497881	     -8.81513718	      5.11125850	     61.56100106	      1.07444216	     -2.68650964	    -26.58379571	      0.00000000	     57.21303246	     -7.59709029	      0.70705887	     84.26241196	      1.47065652	     -3.12044928	     -8.03749450	      0.00000000	    -49.42994347	     -2.74153382	     -3.26574132	     55.75056147	     23.27735675	    -40.15927110	     54.32309782	      0.95185254	      0.00000000	      0.00000000	     54.52102227	      7.24483319	    -25.10846133	     42.54361270	      3.75119811	      0.00000000	      0.00000000
      0.21700000	    -18.02676470	      0.71079499	     11.94259627	      0.08493438	      1.28985101	     -0.01811847	     66.22322008	     -9.74595215	      4.23134781	     58.03288114	      1.01286485	     -4.48136460	    -26.31323544	      0.00000000	     59.05114458	     -6.90309424	      1.58961483	     87.44069493	      1.52612803	     -2.72434106	     -7.68219504	      0.00000000	    -49.44663222	     -2.34239243	     -3.85746829	     55.62030957	     23.24438751	    -40.32129639	     54.34629665	      0.94601453	      0.00000000	      0.00000000	     54.46664988	      7.24406023	    -24.90217265	     42.49924243	      3.82466352	      0.00000000	      0.00000000
      0.23300000	    -18.06396568	      0.77294886	     12.80411134	      0.08444715	      1.29002342	     -0.01914599	     63.83646683	    -10.65884753	      3.22485372	     54.56195063	      0.95228568	     -6.44202860	    -26.01089595	      0.00000000	     61.00336282	     -6.15476600	      2.50895730	     90.46822578	      1.57896841	     -2.37007575	     -7.31145659	      0.00000000	    -49.42290437	     -1.90939389	     -4.43608286	     55.49536288	     23.17399493	    -40.48698443	     54.34258964	      0.94727132	      0.00000000	      0.00000000	     54.41577836	      7.23556177	    -24.61972238	     42.44474812	      3.75623230	      0.00000000	      0.00000000
      0.25000000	    -18.18782231	      0.99193890	     13.50075907	      0.08392317	      1.29006155	     -0.02004882	     61.60782747	    -11.49879920	      2.48975917	     51.28598721	      0.89510934	     -8.54251024	    -25.23216322	      0.00000000	     62.95823350	     -5.43459128	      3.06329167	     93.25828882	      1.62766419	     -1.96125443	     -7.14297984	      0.00000000	    -49.33848472	     -1.73067600	     -5.01636128	     55.33656327	     23.10554292	    -40.67252799	     54.38476445	      0.94292159	      0.00000000	      0.00000000	     54.38145591	      7.23707922	    -24.35697772	     42.35798025	      3.89139470	      0.00000000	      0.00000000
      0.26700000	    -18.22865462	      0.85140380	     14.43871874	      0.08331955	      1.29013121	     -0.02115700	     59.20051425	    -12.28337838	      1.15186213	     48.14265685	      0.84024787	    -10.47058573	    -25.05941908	      0.00000000	     65.06416456	     -4.67424181	      4.02219475	     95.89379220	      1.67366241	     -1.67005649	     -6.96278125	      0.00000000	    -49.23981605	     -1.10436813	     -5.49592269	     55.17925678	     23.00204929	    -40.77074667	     54.38449653	      0.93945604	      0.00000000	      0.00000000	     54.31346918	      7.24093120	    -24.07267411	     42.31769971	      3.69374327	      0.00000000	      0.00000000
